<!-- @generated -->
<mxfile host="65bd71144e">
    <diagram id="WN-x4UFUezwjVK78y_tp" name="Page-1">
        <mxGraphModel dx="706" dy="492" grid="1" gridSize="10" guides="1" tooltips="1" connect="1" arrows="1" fold="1" page="1" pageScale="1" pageWidth="827" pageHeight="1169" math="0" shadow="0">
            <root>
                <mxCell id="0"/>
                <mxCell id="1" parent="0"/>
                <mxCell id="USTvRetl1LjrHLaNF0Dz-2" value="IR" style="rounded=0;whiteSpace=wrap;html=1;align=left;verticalAlign=top;fontSize=40;fontFamily=Verdana;spacingTop=10;spacingLeft=32;glass=0;fontColor=default;fillColor=#FFFFFF;" parent="1" vertex="1">
                    <mxGeometry x="30" y="50" width="530" height="370" as="geometry"/>
                </mxCell>
                <mxCell id="USTvRetl1LjrHLaNF0Dz-4" value="MG" style="rounded=1;whiteSpace=wrap;html=1;align=left;verticalAlign=top;fontSize=30;fontFamily=Verdana;spacingTop=9;spacingLeft=20;" parent="1" vertex="1">
                    <mxGeometry x="40" y="130" width="170" height="280" as="geometry"/>
                </mxCell>
                <mxCell id="USTvRetl1LjrHLaNF0Dz-26" value="" style="group" parent="1" vertex="1" connectable="0">
                    <mxGeometry x="400" y="130" width="150" height="280" as="geometry"/>
                </mxCell>
                <mxCell id="USTvRetl1LjrHLaNF0Dz-7" value="G2" style="rounded=1;whiteSpace=wrap;html=1;align=left;verticalAlign=top;fontSize=30;fontFamily=Verdana;spacingTop=9;spacingLeft=20;" parent="USTvRetl1LjrHLaNF0Dz-26" vertex="1">
                    <mxGeometry width="150" height="280" as="geometry"/>
                </mxCell>
                <mxCell id="Lj1kcJ15nHwfbVdAIqUV-26" value="K" style="rounded=0;whiteSpace=wrap;html=1;fontFamily=Verdana;fontSize=20;align=center;verticalAlign=middle;labelBackgroundColor=none;fillColor=#CC6677;" parent="USTvRetl1LjrHLaNF0Dz-26" vertex="1">
                    <mxGeometry x="30" y="60" width="40" height="30" as="geometry"/>
                </mxCell>
                <mxCell id="Lj1kcJ15nHwfbVdAIqUV-29" value="" style="endArrow=block;html=1;rounded=0;strokeWidth=2;endSize=4;endFill=1;exitX=0.5;exitY=1;exitDx=0;exitDy=0;entryX=0.5;entryY=0;entryDx=0;entryDy=0;" parent="USTvRetl1LjrHLaNF0Dz-26" source="Lj1kcJ15nHwfbVdAIqUV-26" target="Lj1kcJ15nHwfbVdAIqUV-33" edge="1">
                    <mxGeometry x="410" y="190" width="50" height="50" as="geometry">
                        <mxPoint x="210" y="480" as="sourcePoint"/>
                        <mxPoint x="75" y="110" as="targetPoint"/>
                    </mxGeometry>
                </mxCell>
                <mxCell id="Lj1kcJ15nHwfbVdAIqUV-33" value="Add" style="rounded=0;whiteSpace=wrap;html=1;fontFamily=Verdana;fontSize=18;align=center;verticalAlign=middle;labelBackgroundColor=none;fillColor=#44AA99;" parent="USTvRetl1LjrHLaNF0Dz-26" vertex="1">
                    <mxGeometry x="55" y="140" width="40" height="30" as="geometry"/>
                </mxCell>
                <mxCell id="Lj1kcJ15nHwfbVdAIqUV-35" value="" style="endArrow=block;html=1;rounded=0;strokeWidth=2;endSize=4;endFill=1;exitX=0.5;exitY=1;exitDx=0;exitDy=0;entryX=0.5;entryY=0;entryDx=0;entryDy=0;" parent="USTvRetl1LjrHLaNF0Dz-26" target="Lj1kcJ15nHwfbVdAIqUV-33" edge="1">
                    <mxGeometry x="170" y="90" width="50" height="50" as="geometry">
                        <mxPoint x="110" y="120.00000000000011" as="sourcePoint"/>
                        <mxPoint x="235" y="170" as="targetPoint"/>
                    </mxGeometry>
                </mxCell>
                <mxCell id="Lj1kcJ15nHwfbVdAIqUV-36" value="M" style="rounded=0;whiteSpace=wrap;html=1;fontFamily=Verdana;fontSize=20;align=center;verticalAlign=middle;labelBackgroundColor=none;fillColor=#CC6677;" parent="USTvRetl1LjrHLaNF0Dz-26" vertex="1">
                    <mxGeometry x="55" y="190" width="40" height="30" as="geometry"/>
                </mxCell>
                <mxCell id="Lj1kcJ15nHwfbVdAIqUV-37" value="" style="endArrow=block;html=1;rounded=0;strokeWidth=2;endSize=4;endFill=1;exitX=0.5;exitY=1;exitDx=0;exitDy=0;entryX=0.5;entryY=0;entryDx=0;entryDy=0;" parent="USTvRetl1LjrHLaNF0Dz-26" source="Lj1kcJ15nHwfbVdAIqUV-33" target="Lj1kcJ15nHwfbVdAIqUV-36" edge="1">
                    <mxGeometry x="-220" y="-30" width="50" height="50" as="geometry">
                        <mxPoint x="120" y="130" as="sourcePoint"/>
                        <mxPoint x="85" y="150" as="targetPoint"/>
                    </mxGeometry>
                </mxCell>
                <mxCell id="Lj1kcJ15nHwfbVdAIqUV-38" value="C" style="rounded=0;whiteSpace=wrap;html=1;fontFamily=Verdana;fontSize=20;align=center;verticalAlign=middle;labelBackgroundColor=none;fillColor=#DDCC77;" parent="USTvRetl1LjrHLaNF0Dz-26" vertex="1">
                    <mxGeometry x="90" y="90" width="40" height="30" as="geometry"/>
                </mxCell>
                <mxCell id="USTvRetl1LjrHLaNF0Dz-6" value="G1" style="rounded=1;whiteSpace=wrap;html=1;align=left;verticalAlign=top;fontSize=30;fontFamily=Verdana;spacingTop=9;spacingLeft=20;" parent="1" vertex="1">
                    <mxGeometry x="240" y="130" width="150" height="280" as="geometry"/>
                </mxCell>
                <mxCell id="Lj1kcJ15nHwfbVdAIqUV-15" value="" style="group" parent="1" vertex="1" connectable="0">
                    <mxGeometry x="60" y="190" width="130" height="190" as="geometry"/>
                </mxCell>
                <mxCell id="USTvRetl1LjrHLaNF0Dz-19" value="Rand" style="rounded=0;whiteSpace=wrap;html=1;fontFamily=Verdana;fontSize=14;align=center;verticalAlign=middle;labelBackgroundColor=none;fillColor=#44AA99;" parent="Lj1kcJ15nHwfbVdAIqUV-15" vertex="1">
                    <mxGeometry x="45" width="40" height="30" as="geometry"/>
                </mxCell>
                <mxCell id="USTvRetl1LjrHLaNF0Dz-21" value="X" style="rounded=0;whiteSpace=wrap;html=1;fontFamily=Verdana;fontSize=20;align=center;verticalAlign=middle;labelBackgroundColor=none;fillColor=#CC6677;" parent="Lj1kcJ15nHwfbVdAIqUV-15" vertex="1">
                    <mxGeometry x="45" y="50" width="40" height="30" as="geometry"/>
                </mxCell>
                <mxCell id="Lj1kcJ15nHwfbVdAIqUV-1" value="call(G1, X)" style="rounded=0;whiteSpace=wrap;html=1;fontFamily=Verdana;fontSize=20;align=center;verticalAlign=middle;labelBackgroundColor=none;fillColor=#44AA99;" parent="Lj1kcJ15nHwfbVdAIqUV-15" vertex="1">
                    <mxGeometry y="100" width="130" height="40" as="geometry"/>
                </mxCell>
                <mxCell id="Lj1kcJ15nHwfbVdAIqUV-4" value="" style="endArrow=block;html=1;rounded=0;exitX=0.5;exitY=1;exitDx=0;exitDy=0;entryX=0.5;entryY=0;entryDx=0;entryDy=0;strokeWidth=2;endSize=4;endFill=1;" parent="Lj1kcJ15nHwfbVdAIqUV-15" source="USTvRetl1LjrHLaNF0Dz-19" target="USTvRetl1LjrHLaNF0Dz-21" edge="1">
                    <mxGeometry width="50" height="50" relative="1" as="geometry">
                        <mxPoint x="250" y="190" as="sourcePoint"/>
                        <mxPoint x="330" y="210" as="targetPoint"/>
                    </mxGeometry>
                </mxCell>
                <mxCell id="Lj1kcJ15nHwfbVdAIqUV-5" value="" style="endArrow=block;html=1;rounded=0;strokeWidth=2;endSize=4;endFill=1;exitX=0.5;exitY=1;exitDx=0;exitDy=0;entryX=0.5;entryY=0;entryDx=0;entryDy=0;" parent="Lj1kcJ15nHwfbVdAIqUV-15" source="USTvRetl1LjrHLaNF0Dz-21" target="Lj1kcJ15nHwfbVdAIqUV-1" edge="1">
                    <mxGeometry width="50" height="50" relative="1" as="geometry">
                        <mxPoint x="200" y="420" as="sourcePoint"/>
                        <mxPoint x="300" y="450" as="targetPoint"/>
                    </mxGeometry>
                </mxCell>
                <mxCell id="Lj1kcJ15nHwfbVdAIqUV-6" value="Y" style="rounded=0;whiteSpace=wrap;html=1;fontFamily=Verdana;fontSize=20;align=center;verticalAlign=middle;labelBackgroundColor=none;fillColor=#CC6677;" parent="Lj1kcJ15nHwfbVdAIqUV-15" vertex="1">
                    <mxGeometry x="45" y="160" width="40" height="30" as="geometry"/>
                </mxCell>
                <mxCell id="Lj1kcJ15nHwfbVdAIqUV-10" value="" style="edgeStyle=orthogonalEdgeStyle;rounded=0;orthogonalLoop=1;jettySize=auto;html=1;endArrow=block;endFill=1;endSize=4;strokeWidth=2;" parent="Lj1kcJ15nHwfbVdAIqUV-15" source="Lj1kcJ15nHwfbVdAIqUV-1" target="Lj1kcJ15nHwfbVdAIqUV-6" edge="1">
                    <mxGeometry relative="1" as="geometry"/>
                </mxCell>
                <mxCell id="Lj1kcJ15nHwfbVdAIqUV-32" value="" style="group" parent="1" vertex="1" connectable="0">
                    <mxGeometry x="250" y="190" width="130" height="140" as="geometry"/>
                </mxCell>
                <mxCell id="Lj1kcJ15nHwfbVdAIqUV-18" value="A" style="rounded=0;whiteSpace=wrap;html=1;fontFamily=Verdana;fontSize=20;align=center;verticalAlign=middle;labelBackgroundColor=none;fillColor=#CC6677;" parent="Lj1kcJ15nHwfbVdAIqUV-32" vertex="1">
                    <mxGeometry x="45" width="40" height="30" as="geometry"/>
                </mxCell>
                <mxCell id="Lj1kcJ15nHwfbVdAIqUV-19" value="call(G2, A)" style="rounded=0;whiteSpace=wrap;html=1;fontFamily=Verdana;fontSize=20;align=center;verticalAlign=middle;labelBackgroundColor=none;fillColor=#44AA99;" parent="Lj1kcJ15nHwfbVdAIqUV-32" vertex="1">
                    <mxGeometry y="50" width="130" height="40" as="geometry"/>
                </mxCell>
                <mxCell id="Lj1kcJ15nHwfbVdAIqUV-21" value="" style="endArrow=block;html=1;rounded=0;strokeWidth=2;endSize=4;endFill=1;exitX=0.5;exitY=1;exitDx=0;exitDy=0;entryX=0.5;entryY=0;entryDx=0;entryDy=0;" parent="Lj1kcJ15nHwfbVdAIqUV-32" source="Lj1kcJ15nHwfbVdAIqUV-18" target="Lj1kcJ15nHwfbVdAIqUV-19" edge="1">
                    <mxGeometry y="-50" width="50" height="50" as="geometry">
                        <mxPoint x="200" y="370" as="sourcePoint"/>
                        <mxPoint x="300" y="400" as="targetPoint"/>
                    </mxGeometry>
                </mxCell>
                <mxCell id="Lj1kcJ15nHwfbVdAIqUV-22" value="B" style="rounded=0;whiteSpace=wrap;html=1;fontFamily=Verdana;fontSize=20;align=center;verticalAlign=middle;labelBackgroundColor=none;fillColor=#CC6677;" parent="Lj1kcJ15nHwfbVdAIqUV-32" vertex="1">
                    <mxGeometry x="45" y="110" width="40" height="30" as="geometry"/>
                </mxCell>
                <mxCell id="Lj1kcJ15nHwfbVdAIqUV-23" value="" style="edgeStyle=orthogonalEdgeStyle;rounded=0;orthogonalLoop=1;jettySize=auto;html=1;endArrow=block;endFill=1;endSize=4;strokeWidth=2;" parent="Lj1kcJ15nHwfbVdAIqUV-32" source="Lj1kcJ15nHwfbVdAIqUV-19" target="Lj1kcJ15nHwfbVdAIqUV-22" edge="1">
                    <mxGeometry y="-50" as="geometry"/>
                </mxCell>
                <mxCell id="69N0vSkbImYj2Wj8r2e3-1" value="MG" style="rounded=1;whiteSpace=wrap;html=1;align=center;verticalAlign=middle;fontSize=30;fontFamily=Verdana;spacingTop=0;spacingLeft=0;" parent="1" vertex="1">
                    <mxGeometry x="630" y="100" width="80" height="60" as="geometry"/>
                </mxCell>
                <mxCell id="69N0vSkbImYj2Wj8r2e3-2" value="G1" style="rounded=1;whiteSpace=wrap;html=1;align=center;verticalAlign=middle;fontSize=30;fontFamily=Verdana;spacingTop=0;spacingLeft=0;" parent="1" vertex="1">
                    <mxGeometry x="630" y="190" width="80" height="60" as="geometry"/>
                </mxCell>
                <mxCell id="69N0vSkbImYj2Wj8r2e3-3" value="G2" style="rounded=1;whiteSpace=wrap;html=1;align=center;verticalAlign=middle;fontSize=30;fontFamily=Verdana;spacingTop=0;spacingLeft=0;" parent="1" vertex="1">
                    <mxGeometry x="630" y="280" width="80" height="60" as="geometry"/>
                </mxCell>
                <mxCell id="69N0vSkbImYj2Wj8r2e3-4" value="" style="endArrow=classic;html=1;rounded=0;exitX=0.5;exitY=1;exitDx=0;exitDy=0;entryX=0.5;entryY=0;entryDx=0;entryDy=0;strokeWidth=2;" parent="1" source="69N0vSkbImYj2Wj8r2e3-1" target="69N0vSkbImYj2Wj8r2e3-2" edge="1">
                    <mxGeometry width="50" height="50" relative="1" as="geometry">
                        <mxPoint x="780" y="530" as="sourcePoint"/>
                        <mxPoint x="830" y="480" as="targetPoint"/>
                    </mxGeometry>
                </mxCell>
                <mxCell id="69N0vSkbImYj2Wj8r2e3-5" value="" style="endArrow=classic;html=1;rounded=0;exitX=0.5;exitY=1;exitDx=0;exitDy=0;entryX=0.5;entryY=0;entryDx=0;entryDy=0;strokeWidth=2;" parent="1" source="69N0vSkbImYj2Wj8r2e3-2" target="69N0vSkbImYj2Wj8r2e3-3" edge="1">
                    <mxGeometry width="50" height="50" relative="1" as="geometry">
                        <mxPoint x="680" y="170" as="sourcePoint"/>
                        <mxPoint x="680" y="200" as="targetPoint"/>
                    </mxGeometry>
                </mxCell>
            </root>
        </mxGraphModel>
    </diagram>
</mxfile>